<svg width="678.875px" height="94.39999999999999px" xmlns="http://www.w3.org/2000/svg" viewBox="-89.4375 27.800000000000004 678.875 94.39999999999999" style="background: rgba(0, 0, 0, 0);" preserveAspectRatio="xMidYMid"><defs><linearGradient id="editing-gradient-gradient" x1="0.9980973490458728" x2="0.0019026509541272274" y1="0.4564221286261707" y2="0.5435778713738293" gradientUnits="objectBoundingBox"><stop offset="0" stop-color="#f0f"></stop><stop offset="1" stop-color="#0ff"></stop></linearGradient></defs><g><g transform="translate(6.549985647201538, 93.45000076293945)"><path d="M26.60-34.40L26.60-34.40Q29.20-34.40 31.38-33.33L31.38-33.33L31.38-33.33Q33.55-32.25 34.83-30.30L34.83-30.30L34.83-30.30Q36.10-28.35 36.10-25.95L36.10-25.95L36.10-25.95Q36.10-19.60 30.35-17.95L30.35-17.95L30.35-17.75L30.35-17.75Q36.90-16.25 36.90-9.15L36.90-9.15L36.90-9.15Q36.90-6.45 35.58-4.38L35.58-4.38L35.58-4.38Q34.25-2.30 31.95-1.15L31.95-1.15L31.95-1.15Q29.65 0 26.90 0L26.90 0L3.70 0L3.70-34.40L26.60-34.40ZM14.75-26.85L14.75-21L22.35-21L22.35-21Q23.45-21 24.18-21.78L24.18-21.78L24.18-21.78Q24.90-22.55 24.90-23.70L24.90-23.70L24.90-24.20L24.90-24.20Q24.90-25.30 24.15-26.08L24.15-26.08L24.15-26.08Q23.40-26.85 22.35-26.85L22.35-26.85L14.75-26.85ZM14.75-13.90L14.75-8L23.15-8L23.15-8Q24.25-8 24.98-8.78L24.98-8.78L24.98-8.78Q25.70-9.55 25.70-10.70L25.70-10.70L25.70-11.20L25.70-11.20Q25.70-12.35 24.98-13.13L24.98-13.13L24.98-13.13Q24.25-13.90 23.15-13.90L23.15-13.90L14.75-13.90ZM52.20 0L42.25 0L42.25-36.25L52.20-36.25L52.20 0ZM72.20-27L72.20-27Q79.15-27 83.13-23.48L83.13-23.48L83.13-23.48Q87.10-19.95 87.10-13.20L87.10-13.20L87.10-13.20Q87.10-6.45 83.13-2.93L83.13-2.93L83.13-2.93Q79.15 0.60 72.20 0.60L72.20 0.60L72.20 0.60Q65.25 0.60 61.30-2.90L61.30-2.90L61.30-2.90Q57.35-6.40 57.35-13.20L57.35-13.20L57.35-13.20Q57.35-20 61.30-23.50L61.30-23.50L61.30-23.50Q65.25-27 72.20-27L72.20-27ZM72.20-20.25L72.20-20.25Q67.30-20.25 67.30-14.60L67.30-14.60L67.30-11.75L67.30-11.75Q67.30-6.15 72.20-6.15L72.20-6.15L72.20-6.15Q77.15-6.15 77.15-11.75L77.15-11.75L77.15-14.60L77.15-14.60Q77.15-20.25 72.20-20.25L72.20-20.25ZM105.55-27L105.55-27Q112.05-27 116.08-24.23L116.08-24.23L116.08-24.23Q120.10-21.45 120.10-15.75L120.10-15.75L110.45-15.75L110.45-15.75Q110.45-20.25 105.55-20.25L105.55-20.25L105.55-20.25Q100.65-20.25 100.65-14.60L100.65-14.60L100.65-11.75L100.65-11.75Q100.65-6.15 105.75-6.15L105.75-6.15L105.75-6.15Q110.85-6.15 110.85-10.75L110.85-10.75L120.10-10.75L120.10-10.75Q120.10-5 116.08-2.20L116.08-2.20L116.08-2.20Q112.05 0.60 105.55 0.60L105.55 0.60L105.55 0.60Q98.60 0.60 94.65-2.90L94.65-2.90L94.65-2.90Q90.70-6.40 90.70-13.20L90.70-13.20L90.70-13.20Q90.70-20 94.65-23.50L94.65-23.50L94.65-23.50Q98.60-27 105.55-27L105.55-27ZM135.20-16.30L143.65-26.40L155.25-26.40L145.50-15.75L155.50 0L144.20 0L138.65-9.05L135.20-5.70L135.20 0L125.25 0L125.25-36.30L135.20-36.30L135.20-16.30ZM172.25-27L172.25-27Q178.75-27 182.78-24.23L182.78-24.23L182.78-24.23Q186.80-21.45 186.80-15.75L186.80-15.75L177.15-15.75L177.15-15.75Q177.15-20.25 172.25-20.25L172.25-20.25L172.25-20.25Q167.35-20.25 167.35-14.60L167.35-14.60L167.35-11.75L167.35-11.75Q167.35-6.15 172.45-6.15L172.45-6.15L172.45-6.15Q177.55-6.15 177.55-10.75L177.55-10.75L186.80-10.75L186.80-10.75Q186.80-5 182.78-2.20L182.78-2.20L182.78-2.20Q178.75 0.60 172.25 0.60L172.25 0.60L172.25 0.60Q165.30 0.60 161.35-2.90L161.35-2.90L161.35-2.90Q157.40-6.40 157.40-13.20L157.40-13.20L157.40-13.20Q157.40-20 161.35-23.50L161.35-23.50L161.35-23.50Q165.30-27 172.25-27L172.25-27ZM201.90-23.65L201.90-23.65Q203.50-25.25 205.65-26.13L205.65-26.13L205.65-26.13Q207.80-27 210.15-27L210.15-27L210.15-27Q214.75-27 217.05-24.45L217.05-24.45L217.05-24.45Q219.35-21.90 219.35-17.10L219.35-17.10L219.35 0L209.40 0L209.40-15.90L209.40-15.90Q209.40-17.60 208.52-18.63L208.52-18.63L208.52-18.63Q207.65-19.65 206.05-19.65L206.05-19.65L206.05-19.65Q204.20-19.65 203.05-18.45L203.05-18.45L203.05-18.45Q201.90-17.25 201.90-15.50L201.90-15.50L201.90 0L191.95 0L191.95-36.25L201.90-36.25L201.90-23.65ZM238.35-27L238.35-27Q244.40-27 248.20-24.98L248.20-24.98L248.20-24.98Q252-22.95 252-18.40L252-18.40L252-8.10L252-8.10Q252-7.25 252.40-6.70L252.40-6.70L252.40-6.70Q252.80-6.15 253.60-6.15L253.60-6.15L255.40-6.15L255.40-0.40L255.40-0.40Q255.25-0.30 254.63-0.08L254.63-0.08L254.63-0.08Q254 0.15 252.85 0.38L252.85 0.38L252.85 0.38Q251.70 0.60 250.20 0.60L250.20 0.60L250.20 0.60Q247.30 0.60 245.42-0.28L245.42-0.28L245.42-0.28Q243.55-1.15 242.85-2.70L242.85-2.70L242.85-2.70Q240.95-1.20 238.60-0.30L238.60-0.30L238.60-0.30Q236.25 0.60 233.10 0.60L233.10 0.60L233.10 0.60Q223.80 0.60 223.80-6.80L223.80-6.80L223.80-6.80Q223.80-10.65 225.87-12.68L225.87-12.68L225.87-12.68Q227.95-14.70 231.85-15.45L231.85-15.45L231.85-15.45Q235.75-16.20 242.05-16.20L242.05-16.20L242.05-17.50L242.05-17.50Q242.05-19.05 240.97-19.85L240.97-19.85L240.97-19.85Q239.90-20.65 238.20-20.65L238.20-20.65L238.20-20.65Q236.65-20.65 235.52-20.10L235.52-20.10L235.52-20.10Q234.40-19.55 234.40-18.35L234.40-18.35L234.40-18.15L224.60-18.15L224.60-18.15Q224.55-18.40 224.55-18.85L224.55-18.85L224.55-18.85Q224.55-22.60 228.12-24.80L228.12-24.80L228.12-24.80Q231.70-27 238.35-27L238.35-27ZM242.05-11.50L242.05-11.50Q237.80-11.50 235.77-10.58L235.77-10.58L235.77-10.58Q233.75-9.65 233.75-8.10L233.75-8.10L233.75-8.10Q233.75-5.60 237.15-5.60L237.15-5.60L237.15-5.60Q239.10-5.60 240.57-6.65L240.57-6.65L240.57-6.65Q242.05-7.70 242.05-9.25L242.05-9.25L242.05-11.50ZM268.95-29.50L259-29.50L259-36.25L268.95-36.25L268.95-29.50ZM268.95 0L259 0L259-26.40L268.95-26.40L268.95 0ZM293.50-27L293.50-27Q298.10-27 300.40-24.45L300.40-24.45L300.40-24.45Q302.70-21.90 302.70-17.10L302.70-17.10L302.70 0L292.75 0L292.75-15.90L292.75-15.90Q292.75-17.60 291.87-18.63L291.87-18.63L291.87-18.63Q291.00-19.65 289.40-19.65L289.40-19.65L289.40-19.65Q287.55-19.65 286.40-18.45L286.40-18.45L286.40-18.45Q285.25-17.25 285.25-15.50L285.25-15.50L285.25 0L275.30 0L275.30-26.40L283.45-26.40L284.10-22.40L284.10-22.40Q285.65-24.50 288.17-25.75L288.17-25.75L288.17-25.75Q290.70-27 293.50-27L293.50-27ZM321.20-27L321.20-27Q326.50-27 330.17-24.93L330.17-24.93L330.17-24.93Q333.85-22.85 333.85-18.50L333.85-18.50L324.60-18.50L324.60-18.50Q324.60-19.95 323.30-20.55L323.30-20.55L323.30-20.55Q322.40-21.05 321.05-21.05L321.05-21.05L321.05-21.05Q317.45-21.05 317.45-19.35L317.45-19.35L317.45-19.35Q317.45-18.40 318.70-18L318.70-18L318.70-18Q319.95-17.60 322.80-17.15L322.80-17.15L322.80-17.15Q326.30-16.65 328.65-15.98L328.65-15.98L328.65-15.98Q331-15.30 332.75-13.58L332.75-13.58L332.75-13.58Q334.50-11.85 334.50-8.75L334.50-8.75L334.50-8.75Q334.50-3.70 330.72-1.55L330.72-1.55L330.72-1.55Q326.95 0.60 320.85 0.60L320.85 0.60L320.85 0.60Q317.35 0.60 314.25-0.38L314.25-0.38L314.25-0.38Q311.15-1.35 309.20-3.40L309.20-3.40L309.20-3.40Q307.25-5.45 307.25-8.60L307.25-8.60L316.50-8.60L316.50-8.40L316.50-8.40Q316.55-6.70 317.92-6.03L317.92-6.03L317.92-6.03Q319.30-5.35 320.85-5.35L320.85-5.35L320.85-5.35Q325-5.35 325-7.30L325-7.30L325-7.30Q325-8.30 323.70-8.75L323.70-8.75L323.70-8.75Q322.40-9.20 319.45-9.70L319.45-9.70L319.45-9.70Q315.90-10.30 313.63-11L313.63-11L313.63-11Q311.35-11.70 309.65-13.38L309.65-13.38L309.65-13.38Q307.95-15.05 307.95-18.05L307.95-18.05L307.95-18.05Q307.95-22.90 311.63-24.95L311.63-24.95L311.63-24.95Q315.30-27 321.20-27L321.20-27ZM349.85 0L339.25 0L339.25-9.95L349.85-9.95L349.85 0ZM365.85-23.95L365.85-23.95Q368.70-27 373.25-27L373.25-27L373.25-27Q378.60-27 381.50-23.53L381.50-23.53L381.50-23.53Q384.40-20.05 384.40-13.25L384.40-13.25L384.40-13.25Q384.40-6.40 381.50-2.90L381.50-2.90L381.50-2.90Q378.60 0.60 373.25 0.60L373.25 0.60L373.25 0.60Q367.75 0.60 364.85-3.75L364.85-3.75L364.00 0L355.90 0L355.90-36.25L365.85-36.25L365.85-23.95ZM370.15-19.65L370.15-19.65Q367.95-19.65 366.85-18.07L366.85-18.07L366.85-18.07Q365.75-16.50 365.75-14L365.75-14L365.75-12.35L365.75-12.35Q365.75-9.85 366.85-8.30L366.85-8.30L366.85-8.30Q367.95-6.75 370.15-6.75L370.15-6.75L370.15-6.75Q374.45-6.75 374.45-11.85L374.45-11.85L374.45-14.50L374.45-14.50Q374.45-19.65 370.15-19.65L370.15-19.65ZM402.85-27L402.85-27Q409.80-27 413.77-23.48L413.77-23.48L413.77-23.48Q417.75-19.95 417.75-13.20L417.75-13.20L417.75-13.20Q417.75-6.45 413.77-2.93L413.77-2.93L413.77-2.93Q409.80 0.60 402.85 0.60L402.85 0.60L402.85 0.60Q395.90 0.60 391.95-2.90L391.95-2.90L391.95-2.90Q388-6.40 388-13.20L388-13.20L388-13.20Q388-20 391.95-23.50L391.95-23.50L391.95-23.50Q395.90-27 402.85-27L402.85-27ZM402.85-20.25L402.85-20.25Q397.95-20.25 397.95-14.60L397.95-14.60L397.95-11.75L397.95-11.75Q397.95-6.15 402.85-6.15L402.85-6.15L402.85-6.15Q407.80-6.15 407.80-11.75L407.80-11.75L407.80-14.60L407.80-14.60Q407.80-20.25 402.85-20.25L402.85-20.25ZM440.75-27L440.75-27Q445.35-27 447.65-24.45L447.65-24.45L447.65-24.45Q449.95-21.90 449.95-17.10L449.95-17.10L449.95 0L440 0L440-15.90L440-15.90Q440-17.60 439.13-18.63L439.13-18.63L439.13-18.63Q438.25-19.65 436.65-19.65L436.65-19.65L436.65-19.65Q434.80-19.65 433.65-18.45L433.65-18.45L433.65-18.45Q432.50-17.25 432.50-15.50L432.50-15.50L432.50 0L422.55 0L422.55-26.40L430.70-26.40L431.35-22.40L431.35-22.40Q432.90-24.50 435.43-25.75L435.43-25.75L435.43-25.75Q437.95-27 440.75-27L440.75-27ZM483.20 0L475.10 0L474.25-3.75L474.25-3.75Q471.35 0.60 465.85 0.60L465.85 0.60L465.85 0.60Q460.50 0.60 457.60-2.90L457.60-2.90L457.60-2.90Q454.70-6.40 454.70-13.25L454.70-13.25L454.70-13.25Q454.70-20.05 457.60-23.53L457.60-23.53L457.60-23.53Q460.50-27 465.85-27L465.85-27L465.85-27Q470.40-27 473.25-23.95L473.25-23.95L473.25-36.25L483.20-36.25L483.20 0ZM468.95-19.65L468.95-19.65Q464.65-19.65 464.65-14.50L464.65-14.50L464.65-11.85L464.65-11.85Q464.65-6.75 468.95-6.75L468.95-6.75L468.95-6.75Q471.15-6.75 472.25-8.30L472.25-8.30L472.25-8.30Q473.35-9.85 473.35-12.35L473.35-12.35L473.35-14L473.35-14Q473.35-16.50 472.25-18.07L472.25-18.07L472.25-18.07Q471.15-19.65 468.95-19.65L468.95-19.65Z" fill="url(#editing-gradient-gradient)"></path></g></g><style>text {
  font-size: 64px;
  font-family: Arial Black;
  dominant-baseline: central;
  text-anchor: middle;
}</style></svg>