<?xml version="1.0" encoding="utf-8"?>
<!-- Generator: Adobe Illustrator 16.0.0, SVG Export Plug-In . SVG Version: 6.00 Build 0)  -->
<!DOCTYPE svg PUBLIC "-//W3C//DTD SVG 1.1//EN" "http://www.w3.org/Graphics/SVG/1.1/DTD/svg11.dtd">
<svg version="1.1" id="Layer_1" xmlns="http://www.w3.org/2000/svg" xmlns:xlink="http://www.w3.org/1999/xlink" x="0px" y="0px"
	 width="128px" height="128px" viewBox="0 0 128 128" enable-background="new 0 0 128 128" xml:space="preserve">
<g>
	<g>
		<g>
			<g>
				<path fill="#282D33" d="M60.975,128c-25.436,0-46.129-20.493-46.129-45.682c0-20.919,14.011-38.854,34.273-44.154V19.39h-2.87V0
					h29.456v19.39h-2.87v18.774C93.1,43.466,107.111,61.4,107.111,82.318C107.111,107.507,86.415,128,60.975,128z M50.258,15.381
					h2.87V41.34l-1.562,0.353c-19.26,4.354-32.711,21.06-32.711,40.625c0,22.979,18.895,41.673,42.121,41.673
					c23.229,0,42.129-18.694,42.129-41.673c0-19.564-13.453-36.271-32.715-40.625l-1.562-0.353V15.381h2.869V4.009H50.258V15.381z"
					/>
			</g>
		</g>
		<g>
			<rect x="50.646" y="14.812" fill="#282D33" width="12.751" height="4.009"/>
		</g>
		<g>
			<g>
				<g>
					<rect x="98.106" y="1.73" fill="#282D33" width="4.009" height="4.978"/>
				</g>
			</g>
			<g>
				<g>
					
						<rect x="87.51" y="7.731" transform="matrix(0.8682 0.4961 -0.4961 0.8682 16.6902 -43.3789)" fill="#282D33" width="5.015" height="4.008"/>
				</g>
			</g>
			<g>
				<g>
					
						<rect x="87.793" y="18.637" transform="matrix(0.4956 0.8685 -0.8685 0.4956 63.6579 -67.3276)" fill="#282D33" width="4.008" height="5.016"/>
				</g>
			</g>
			<g>
				<g>
					<rect x="97.665" y="24.55" fill="#282D33" width="4.009" height="4.979"/>
				</g>
			</g>
			<g>
				<g>
					
						<rect x="107.255" y="19.52" transform="matrix(0.8682 0.4963 -0.4963 0.8682 25.154 -51.6367)" fill="#282D33" width="5.015" height="4.008"/>
				</g>
			</g>
			<g>
				<g>
					
						<rect x="107.978" y="7.607" transform="matrix(0.496 0.8683 -0.8683 0.496 64.2151 -90.404)" fill="#282D33" width="4.009" height="5.013"/>
				</g>
			</g>
		</g>
		<g>
			<g>
				
					<rect x="26.626" y="19.462" transform="matrix(0.7034 0.7108 -0.7108 0.7034 27.0501 -12.6067)" fill="#282D33" width="4.008" height="13.293"/>
			</g>
			<g>
				
					<rect x="21.984" y="24.104" transform="matrix(0.7107 0.7035 -0.7035 0.7107 26.6487 -12.5883)" fill="#282D33" width="13.293" height="4.008"/>
			</g>
		</g>
	</g>
	<g>
		<g>
			<g>
				<path fill="#282D33" d="M51.032,113.636l-0.027-14.583l2.339-9.396l-4.403-2.136l-0.708-6.655l7.557-7.863l6.182,1.138
					l0.943,0.839l-0.083-0.291l-5.753-3.764l1.145-4.534l6.051-0.663l-0.677-4.1l10.419-3.443l5.331,4.928l10.207,1.134
					c0.943-0.07,5.353-0.396,10.203-0.725l0.272,4c-5.463,0.372-10.361,0.736-10.364,0.736l-0.185,0.014l-11.886-1.32l-4.565-4.218
					l-4.919,1.626l0.808,4.892l-6.062,0.665l3.418,2.237l1.669,5.829l-3.677,3.563l-4.123-3.664l-2.959-0.545l-4.769,4.962
					l0.275,2.587l5.33,2.586L55.014,99.54l0.009,4.841l12.52-11.771l-2.517-2.514l2.466-7.963l6.704,4.649l6.311-3.34l0.849,8.734
					l6.997-1.248l0.379,6.873l7.788-6.463l7.213-4.543l2.136,3.392l-7.101,4.473l-13.601,11.327l-0.568-10.318l-6.813,1.215
					l-0.689-7.101l-3.179,1.683l-4.214-2.921l-0.132,0.426l3.729,3.727L51.032,113.636z"/>
			</g>
			<g>
				<path fill="#282D33" d="M27.057,75.143l-8.271-3.516l1.569-3.689l5.927,2.52l0.746-4.482c0.084-1.055,0.53-2.566,1.174-3.159
					l2.076-0.447l4.581,1.502l9.884-3.191l-0.941-3.303c-3.344,1.659-3.715,1.619-4.563,1.184l-1.074-1.495
					c-0.794-4.938-0.857-5.737,0.107-6.535l6.672-6.346l2.435-3.898l3.4,2.124l-2.569,4.114l-0.319,0.391l-6.27,5.963
					c0.031,0.285,0.076,0.639,0.128,1.03c0.761-0.37,1.623-0.801,2.402-1.199l2.839,1.236l2.137,7.5L47.816,63.9L35.47,67.887
					l-1.24-0.003l-3.278-1.075l-1.133,6.818L27.057,75.143z"/>
			</g>
			<g>
				<path fill="#282D33" d="M24.75,106.514l-2.361-8.756l4.02-8.842l-0.537-8.732l9.883-8.917l8.072,17.851L24.75,106.514z
					 M26.635,98.105l0.273,1.016l12.068-11.004l-4.61-10.197l-4.374,3.945l0.44,7.151c0.031,0.442-0.059,0.901-0.262,1.312
					L26.635,98.105z"/>
			</g>
			<g>
				<path fill="#282D33" d="M54.163,60.675l-0.501-15.453l1.955-0.109c1.176-0.065,2.342-0.099,3.463-0.099
					c5.902,0,9.6,0.906,11.278,1.446l2.66,0.855l-7.664,10.347L54.163,60.675z M57.796,49.038l0.209,6.452l4.958-1.334l3.369-4.549
					c-1.726-0.308-4.139-0.584-7.253-0.584C58.659,49.022,58.23,49.027,57.796,49.038z"/>
			</g>
		</g>
	</g>
</g>
</svg>
