<?xml version="1.0" encoding="utf-8"?>
<!-- Generator: Adobe Illustrator 16.0.0, SVG Export Plug-In . SVG Version: 6.00 Build 0)  -->
<!DOCTYPE svg PUBLIC "-//W3C//DTD SVG 1.1//EN" "http://www.w3.org/Graphics/SVG/1.1/DTD/svg11.dtd">
<svg version="1.1" id="Layer_1" xmlns="http://www.w3.org/2000/svg" xmlns:xlink="http://www.w3.org/1999/xlink" x="0px" y="0px"
	 width="128px" height="128px" viewBox="0 0 128 128" enable-background="new 0 0 128 128" xml:space="preserve">
<g>
	<g>
		<g>
			<g>
				<path fill="#282D33" d="M60.469,127.881c-25.292,0-45.868-20.478-45.868-45.647c0-20.893,13.928-38.807,34.065-44.108V19.382
					h-2.854V0H75.13v19.382h-2.854v18.745c11.772,3.118,21.924,10.866,28.023,21.449c0.959,1.659,1.823,3.409,2.568,5.199
					l-3.715,1.544c-0.678-1.629-1.464-3.221-2.338-4.731c-5.812-10.085-15.65-17.345-26.996-19.923l-1.565-0.355V15.359h2.854V4.023
					H49.836v11.336h2.853V41.31l-1.565,0.355c-19.135,4.346-32.499,21.029-32.499,40.568c0,22.952,18.771,41.625,41.845,41.625
					c3.762,0,7.485-0.496,11.069-1.474l1.059,3.882C68.668,127.338,64.587,127.881,60.469,127.881z"/>
			</g>
		</g>
		<g>
			<rect x="50.204" y="14.792" fill="#282D33" width="12.673" height="4.023"/>
		</g>
		<g>
			<g>
				<g>
					<rect x="59.536" y="48.817" fill="#282D33" width="4.022" height="4.971"/>
				</g>
			</g>
			<g>
				<g>
					
						<rect x="49.019" y="54.801" transform="matrix(0.867 0.4983 -0.4983 0.867 35.1588 -18.1135)" fill="#282D33" width="4.991" height="4.023"/>
				</g>
			</g>
			<g>
				<g>
					
						<rect x="49.285" y="65.716" transform="matrix(0.4979 0.8672 -0.8672 0.4979 84.9072 -10.2382)" fill="#282D33" width="4.022" height="4.992"/>
				</g>
			</g>
			<g>
				<g>
					<rect x="59.098" y="71.611" fill="#282D33" width="4.022" height="4.974"/>
				</g>
			</g>
			<g>
				<g>
					
						<rect x="68.645" y="66.577" transform="matrix(0.8672 0.498 -0.498 0.8672 43.6052 -26.3172)" fill="#282D33" width="4.989" height="4.024"/>
				</g>
			</g>
			<g>
				<g>
					
						<rect x="69.347" y="54.695" transform="matrix(0.4981 0.8671 -0.8671 0.4981 85.403 -33.1729)" fill="#282D33" width="4.023" height="4.99"/>
				</g>
			</g>
		</g>
		<g>
			<path fill="#282D33" d="M98.399,128c-15.965,0-28.953-12.926-28.953-28.815s12.988-28.815,28.953-28.815
				c15.97,0,28.961,12.926,28.961,28.815S114.369,128,98.399,128z M98.399,74.393c-13.747,0-24.931,11.121-24.931,24.792
				s11.184,24.793,24.931,24.793c13.752,0,24.938-11.122,24.938-24.793S112.151,74.393,98.399,74.393z"/>
		</g>
		<g>
			<g>
				<path fill="#282D33" d="M100.37,101.33l-6.539-2.535c-2.667-1.688-3.227-3.565-3.227-4.843v-2.745
					c0-3.333,2.721-6.044,6.063-6.044h3.255c3.343,0,6.062,2.711,6.062,6.044v1.283h-4.023v-1.283c0-1.114-0.914-2.021-2.038-2.021
					h-3.255c-1.125,0-2.041,0.906-2.041,2.021v2.745c0,0.268,0.317,0.754,1.194,1.34l5.98,2.278L100.37,101.33z"/>
			</g>
			<g>
				<path fill="#282D33" d="M99.922,111.662h-3.254c-3.344,0-6.064-2.712-6.064-6.044v-1.283h4.022v1.283
					c0,1.114,0.917,2.021,2.042,2.021h3.254c1.124,0,2.038-0.906,2.038-2.021v-2.748c0-0.201-0.27-0.741-1.268-1.406l-5.696-2.183
					l1.439-3.756l6.246,2.435c2.729,1.723,3.302,3.621,3.302,4.91v2.748C105.983,108.95,103.265,111.662,99.922,111.662z"/>
			</g>
			<g>
				<rect x="96.531" y="81.655" fill="#282D33" width="4.022" height="6.021"/>
			</g>
			<g>
				<rect x="96.531" y="108.676" fill="#282D33" width="4.022" height="6.022"/>
			</g>
		</g>
		<g>
			<rect x="99.737" y="9.661" fill="#282D33" width="4.023" height="6.52"/>
		</g>
		<g>
			<rect x="99.741" y="31.397" fill="#282D33" width="4.023" height="6.52"/>
		</g>
		<g>
			
				<rect x="89.014" y="16.345" transform="matrix(0.8671 0.4981 -0.4981 0.8671 21.4048 -43.5273)" fill="#282D33" width="6.548" height="4.023"/>
		</g>
		<g>
			
				<rect x="107.939" y="27.211" transform="matrix(0.867 0.4983 -0.4983 0.867 29.3484 -51.5267)" fill="#282D33" width="6.546" height="4.022"/>
		</g>
		<g>
			
				<rect x="90.276" y="25.948" transform="matrix(0.4981 0.8671 -0.8671 0.4981 71.6618 -65.3587)" fill="#282D33" width="4.023" height="6.548"/>
		</g>
		<g>
			
				<rect x="109.202" y="15.084" transform="matrix(0.498 0.8672 -0.8672 0.498 71.7414 -87.2237)" fill="#282D33" width="4.022" height="6.546"/>
		</g>
	</g>
	<g>
		<path fill="#282D33" d="M66.188,91.687c-3.835,0-5.83-1.197-7.591-2.254c-1.564-0.939-2.801-1.682-5.522-1.682
			s-3.957,0.742-5.522,1.681c-1.761,1.057-3.757,2.255-7.593,2.255c-3.834,0-5.829-1.198-7.589-2.255
			c-1.563-0.938-2.798-1.681-5.517-1.681c-2.721,0-3.956,0.742-5.52,1.681c-1.761,1.057-3.755,2.255-7.59,2.255
			c-3.833,0-5.828-1.198-7.588-2.255c-1.563-0.938-2.799-1.681-5.518-1.681v-4.022c3.834,0,5.829,1.198,7.589,2.255
			c1.563,0.939,2.799,1.681,5.517,1.681c2.72,0,3.955-0.741,5.519-1.681c1.761-1.057,3.756-2.255,7.591-2.255
			c3.834,0,5.829,1.198,7.588,2.255c1.563,0.939,2.799,1.681,5.518,1.681c2.722,0,3.958-0.741,5.522-1.682
			c1.762-1.057,3.757-2.254,7.593-2.254s5.832,1.198,7.593,2.255c1.564,0.939,2.8,1.681,5.521,1.681V91.687z"/>
	</g>
</g>
</svg>
